# Blender v2.93.4 OBJ File: ''
# www.blender.org
mtllib obamium.mtl
o Cube_Cube.001
v -0.008054 1.000000 0.003656
v -1.000000 -1.000000 -1.000000
v -1.000000 -1.000000 1.000000
v -0.008054 1.000000 -0.003656
v 1.000000 -1.000000 -1.000000
v 0.008054 1.000000 -0.003656
v 1.000000 -1.000000 1.000000
v 0.008054 1.000000 0.003656
vt 0.625000 0.000000
vt 0.375000 0.250000
vt 0.375000 0.000000
vt 0.757883 0.764252
vt 0.597973 0.439430
vt 0.774775 0.675178
vt 0.667793 0.836105
vt 0.335586 0.448337
vt 0.661036 0.413302
vt 0.766892 0.391330
vt 0.769144 0.539192
vt 0.558559 0.494656
vt 0.375000 0.500000
vt 0.125000 0.750000
vt 0.125000 0.500000
vt 0.875000 0.500000
vt 0.625000 0.750000
vt 0.625000 0.500000
vt 0.625000 0.250000
vt 0.538288 0.915677
vt 0.439189 0.967340
vt 0.593468 0.950119
vt 0.375000 0.750000
vt 0.875000 0.750000
vn -0.8959 0.4443 0.0000
vn 0.0000 0.4459 -0.8951
vn 0.8959 0.4443 0.0000
vn 0.0000 0.4459 0.8951
vn 0.0000 -1.0000 -0.0000
vn 0.0000 1.0000 0.0000
usemtl Default_OBJ
s off
f 1/1/1 2/2/1 3/3/1
f 4/4/2 5/5/2 2/6/2
f 6/7/3 7/8/3 5/9/3
f 8/10/4 3/11/4 7/12/4
f 5/13/5 3/14/5 2/15/5
f 4/16/6 8/17/6 6/18/6
f 1/1/1 4/19/1 2/2/1
f 4/4/2 6/20/2 5/5/2
f 6/7/3 8/21/3 7/8/3
f 8/10/4 1/22/4 3/11/4
f 5/13/5 7/23/5 3/14/5
f 4/16/6 1/24/6 8/17/6
